<?xml version="1.0" encoding="UTF-8" standalone="no"?>
<!-- Created with Inkscape (http://www.inkscape.org/) -->

<svg
   xmlns:dc="http://purl.org/dc/elements/1.1/"
   xmlns:cc="http://creativecommons.org/ns#"
   xmlns:rdf="http://www.w3.org/1999/02/22-rdf-syntax-ns#"
   xmlns:svg="http://www.w3.org/2000/svg"
   xmlns="http://www.w3.org/2000/svg"
   xmlns:sodipodi="http://sodipodi.sourceforge.net/DTD/sodipodi-0.dtd"
   xmlns:inkscape="http://www.inkscape.org/namespaces/inkscape"
   width="247.21967"
   height="247.2184"
   id="svg2"
   version="1.1"
   inkscape:version="0.48.2 r9819"
   sodipodi:docname="logo.svg"
   inkscape:export-filename="C:\Users\Matthias\Desktop\Aeskulab.png"
   inkscape:export-xdpi="13.91"
   inkscape:export-ydpi="13.91">
  <defs
     id="defs4" />
  <sodipodi:namedview
     id="base"
     pagecolor="#ffffff"
     bordercolor="#666666"
     borderopacity="1.0"
     inkscape:pageopacity="0.0"
     inkscape:pageshadow="2"
     inkscape:zoom="2.8284271"
     inkscape:cx="127.3565"
     inkscape:cy="124.15059"
     inkscape:document-units="px"
     inkscape:current-layer="layer1"
     showgrid="true"
     inkscape:window-width="1680"
     inkscape:window-height="988"
     inkscape:window-x="-8"
     inkscape:window-y="-8"
     inkscape:window-maximized="1"
     fit-margin-top="5"
     fit-margin-left="24.63"
     fit-margin-right="24.63"
     fit-margin-bottom="5">
    <inkscape:grid
       type="xygrid"
       id="grid2985"
       empspacing="5"
       visible="true"
       enabled="true"
       snapvisiblegridlinesonly="true" />
  </sodipodi:namedview>
  <metadata
     id="metadata7">
    <rdf:RDF>
      <cc:Work
         rdf:about="">
        <dc:format>image/svg+xml</dc:format>
        <dc:type
           rdf:resource="http://purl.org/dc/dcmitype/StillImage" />
        <dc:title />
      </cc:Work>
    </rdf:RDF>
  </metadata>
  <g
     inkscape:label="Ebene 1"
     inkscape:groupmode="layer"
     id="layer1"
     transform="translate(-291.68097,-418.86397)">
    <path
       style="fill:#e2001a;fill-opacity:1;stroke:none"
       d="m 502.32361,597.20662 c 14.7231,-13.53627 7.58689,-26.52989 -2.19724,-31.94013 l -10.6957,-5.9143 -116.47143,0.57361 -3.97747,10.44891 10.4489,3.97748 -3.97747,10.44891 10.44891,3.97747 -3.97749,10.44891 10.44891,3.97747 -3.97748,10.44891 10.44891,3.97749 -3.97747,10.4489 10.4489,3.97748 -3.97747,10.4489 10.44891,3.97748 c 10.1522,11.04232 16.92034,18.40386 31.64343,4.86759 l 29.44617,-27.07254 z"
       id="path3002-1"
       inkscape:connector-curvature="0"
       sodipodi:nodetypes="ssccccccccccccccscs" />
    <path
       sodipodi:type="arc"
       style="fill:#e2001a;fill-opacity:1;stroke:#e2001a;stroke-opacity:1"
       id="path3788"
       sodipodi:cx="380"
       sodipodi:cy="432.36218"
       sodipodi:rx="10"
       sodipodi:ry="10"
       d="m 390,432.36218 c 0,5.52285 -4.47715,10 -10,10 -5.52285,0 -10,-4.47715 -10,-10 0,-5.52284 4.47715,-10 10,-10 5.52285,0 10,4.47716 10,10 z"
       transform="matrix(0.8660254,-0.5,0.5,0.8660254,-210.84007,288.57581)" />
    <path
       style="fill:none;stroke:#000000;stroke-width:5;stroke-linecap:butt;stroke-linejoin:miter;stroke-miterlimit:4;stroke-opacity:1;stroke-dasharray:none"
       d="m 503.40786,597.11428 c 14.7231,-13.53627 7.5182,-26.40748 -2.19724,-31.94013 L 387.16274,500.22738 360.0902,470.7812 c -4.78579,-5.2054 2.11803,-15.53141 -3.08736,-10.74562 l -18.40387,16.92034 -18.40386,16.92034 c -5.2054,4.7858 5.66309,-1.22793 10.44891,3.97749 l 27.07254,29.44617 3.38407,3.68077 -3.97748,10.44891 10.44891,3.97748 -3.97748,10.44891 10.44891,3.97747 -3.97747,10.44891 10.4489,3.97748 -3.97747,10.44891 10.44891,3.97747 -3.97749,10.44891 10.44891,3.97747 -3.97748,10.44891 10.44891,3.97749 -3.97747,10.4489 10.4489,3.97748 -3.97747,10.4489 10.44891,3.97748 c 10.1522,11.04232 16.92034,18.40386 31.64343,4.86759 l 29.44617,-27.07254 z"
       id="path3002"
       inkscape:connector-curvature="0"
       sodipodi:nodetypes="sscsscssccccccccccccccccccscs" />
    <path
       sodipodi:type="arc"
       style="fill:#e2001a;fill-opacity:1;stroke:#e2001a;stroke-opacity:1"
       id="path3790"
       sodipodi:cx="405"
       sodipodi:cy="402.36218"
       sodipodi:rx="5"
       sodipodi:ry="5"
       d="m 410,402.36218 c 0,2.76143 -2.23858,5 -5,5 -2.76142,0 -5,-2.23857 -5,-5 0,-2.76142 2.23858,-5 5,-5 2.76142,0 5,2.23858 5,5 z"
       transform="matrix(0.8660254,-0.5,0.5,0.8660254,-204.99071,309.06619)" />
    <path
       sodipodi:type="arc"
       style="fill:#e2001a;fill-opacity:1;stroke:#e2001a;stroke-opacity:1"
       id="path3795"
       sodipodi:cx="405"
       sodipodi:cy="422.36218"
       sodipodi:rx="10"
       sodipodi:ry="10"
       d="m 415,422.36218 c 0,5.52285 -4.47715,10 -10,10 -5.52285,0 -10,-4.47715 -10,-10 0,-5.52284 4.47715,-10 10,-10 5.52285,0 10,4.47716 10,10 z"
       transform="matrix(0.8660254,-0.5,0.5,0.8660254,-213.83045,271.07581)" />
    <path
       sodipodi:type="arc"
       style="fill:#e2001a;fill-opacity:1;stroke:#e2001a;stroke-opacity:1"
       id="path3797"
       sodipodi:cx="380"
       sodipodi:cy="402.36218"
       sodipodi:rx="5"
       sodipodi:ry="5"
       d="m 385,402.36218 c 0,2.76143 -2.23858,5 -5,5 -2.76142,0 -5,-2.23857 -5,-5 0,-2.76142 2.23858,-5 5,-5 2.76142,0 5,2.23858 5,5 z"
       transform="matrix(0.8660254,-0.5,0.5,0.8660254,-201.50995,283.39632)" />
  </g>
</svg>
